<?xml version="1.0" encoding="utf-8"?>
<!-- Svg Vector Icons : http://www.onlinewebfonts.com/icon -->
<!DOCTYPE svg PUBLIC "-//W3C//DTD SVG 1.1//EN" "http://www.w3.org/Graphics/SVG/1.1/DTD/svg11.dtd">
<svg version="1.1" xmlns="http://www.w3.org/2000/svg" xmlns:xlink="http://www.w3.org/1999/xlink" x="0px" y="0px" viewBox="0 0 1000 1000" enable-background="new 0 0 1000 1000" xml:space="preserve">
<metadata> Svg Vector Icons : http://www.onlinewebfonts.com/icon </metadata>
<g><g transform="translate(0.000000,511.000000) scale(0.100000,-0.100000)"><path d="M7572.9,4998.8c-491-63.1-1060.7-630.6-1450.4-1436.8c-346.8-720.7-500-1380.5-500-2162c0-373.9,18-583.3,72.1-849.1c20.3-103.6,31.5-119.4,94.6-139.6C6109,309.9,7613.5-131.5,7636-129.3c58.6,2.3,556.3,653.1,752.2,981.9c238.7,405.4,371.6,772.5,461.7,1267.9c60.8,342.3,67.6,1051.7,11.3,1373.8c-153.1,887.3-554,1454.9-1063,1513.4C7748.6,5012.3,7647.2,5010.1,7572.9,4998.8z"/><path d="M2179.1,2658.9c-819.8-126.1-1286-1567.5-988.7-3049.4c121.6-603.5,400.9-1144,932.4-1806.2c121.6-153.2,232-277,245.5-277c31.5,0,1907.5,558.5,1921.1,569.8c4.5,4.5,22.5,94.6,42.8,198.2c49.5,259,67.6,943.6,33.8,1263.5c-78.8,754.4-371.6,1576.5-779.2,2191.3c-168.9,256.7-554,644.1-754.5,761.2C2609.2,2638.6,2381.8,2690.4,2179.1,2658.9z"/><path d="M5496.5-397.2c-274.8-612.6-326.6-1198.2-139.6-1563c189.2-371.6,702.7-578.8,1119.3-450.4c439.2,137.4,731.9,626.1,819.8,1376c13.5,123.9,22.5,229.7,15.8,236.5c-4.5,4.5-373.9,114.8-819.8,247.7c-445.9,132.9-840,250-873.8,261.2C5557.3-268.9,5552.8-271.1,5496.5-397.2z"/><path d="M3570.9-2874.6l-873.8-261.3v-92.3c0-270.3,141.9-810.8,270.3-1038.2c263.5-459.5,716.2-632.9,1186.9-454.9c279.3,105.8,457.2,283.8,551.8,558.5c69.8,200.4,69.8,574.3-2.3,867.1c-45,187-209.4,635.1-245.5,666.6C4449.2-2620.1,4050.6-2730.5,3570.9-2874.6z"/></g></g>
</svg>